<svg width="184" height="53" viewBox="0 0 184 53" fill="none" xmlns="http://www.w3.org/2000/svg">
<g clip-path="url(#clip0_38_274)">
<path d="M126.461 18.9076C126.461 17.6399 127.488 16.6128 128.755 16.6128C130.022 16.6128 131.051 17.6404 131.051 18.9076C131.051 20.1744 130.022 21.202 128.755 21.202C127.488 21.2015 126.461 20.1744 126.461 18.9076ZM179.808 33.1441C177.19 32.139 178.007 27.2172 181.337 27.8748C180.401 25.6094 171.412 30.0773 167.255 36.5934C165.716 38.7649 158.125 51.6388 158.125 51.6388L152.759 51.6583C153.105 51.0162 163.634 33.4852 163.634 33.4852C163.634 33.4852 151.195 47.7431 141.455 50.9248C138.363 51.9669 135.836 52.595 132.737 51.6258C127.232 49.283 128.484 44.157 129.843 41.0029C126.635 45.0618 120.554 50.0685 120.554 50.0685C116.745 52.7638 113.701 52.4132 112.564 51.9019C108.628 49.7 111.699 44.5875 114.47 39.5848C114.474 39.5763 114.481 39.5638 114.491 39.5454C114.521 39.4919 114.572 39.3976 114.674 39.2158C109.29 45.1032 104.555 48.576 104.555 48.576C98.7415 53.5497 89.0397 52.8097 93.1391 44.9525C94.1747 42.9697 102.268 29.0298 102.268 29.0298L103.421 26.9616C95.408 36.9988 92.0721 34.689 92.0721 34.689C91.2837 34.323 90.9971 33.8022 90.8093 33.3029C90.4663 31.8359 91.2257 29.6834 92.9284 29.4227C93.5176 29.3259 94.2092 29.4307 94.9961 29.8297C95.087 26.2171 87.9697 27.1708 84.092 32.3437C82.293 34.1557 72.3191 51.7332 72.3191 51.7332L66.3563 51.7546L72.9058 41.2056C58.7782 58.6951 51.1112 51.2918 52.3325 46.3341C48.3719 49.4563 45.3441 50.6731 43.9085 51.2663C42.1929 51.9219 40.1647 52.2964 38.7421 52.0323C34.8784 51.3672 32.8821 47.9339 34.1095 43.4056C34.1095 43.4056 26.2392 50.8629 16.8536 52.0303C-9.6591 54.0835 -0.153621 27.736 13.2141 14.1716C28.7967 -0.329541 40.9751 -0.911244 47.2809 3.11424C49.3795 4.37252 53.8729 3.33294 55.8946 2.46513C52.5827 5.91191 49.6317 11.4643 49.6317 11.4643C49.2992 5.06757 45.3211 -0.406935 35.5645 2.17453C22.5228 5.62531 13.4428 20.5688 11.0296 24.085C4.11104 37.3693 5.57254 45.2431 9.31042 49.0638C12.8321 52.6639 23.6143 52.1102 34.106 42.4768C36.5656 37.992 39.4591 34.3744 42.5164 31.6721C46.8585 27.8314 51.2819 25.5405 55.6624 25.592C56.5342 25.602 57.1609 25.6554 58.0337 25.8411C62.0053 26.6365 61.7127 30.6825 61.5364 31.7156C61.8115 31.08 63.5706 27.7964 64.2871 26.7379L69.3956 26.7189L59.0843 44.1421C57.2373 47.1415 57.3476 49.3599 59.1052 50.1269C65.6118 51.7571 77.5649 34.7584 82.0573 26.7788L87.1948 26.7604L84.9384 30.4828C89.1556 26.7529 92.8206 27.3076 92.8206 27.3076C92.8206 27.3076 95.4015 27.5313 95.8744 29.8521C95.8744 29.8521 96.2943 31.8619 95.1514 33.3758C101.527 30.6585 107.866 19.9207 110.58 15.3275L115.687 15.31L109.586 26.0119L115.344 26.0139L114.604 26.7828L108.968 26.8023L98.8653 44.0562C94.8603 49.7973 99.3566 51.6892 105.12 47.2843C115.309 40.0771 121.568 28.5614 122.853 26.8028H127.537L117.184 44.7657C114.528 49.2101 117.365 52.8122 123.64 46.6531C123.64 46.6531 128.489 42.0879 130.87 38.9102L131.861 37.4502L132.325 36.7692C139.053 27.8189 149.576 23.7175 153.499 27.6132C158.061 33.941 143.498 42.4509 135.187 41.609V41.5561C133.26 46.4988 133.675 50.6861 139.545 50.2607C146.045 50.03 160.607 38.5512 167.582 26.7109L173 26.6925L169.411 32.8715C170.233 32.0441 177.153 26.4728 180.661 26.5626C186.313 26.8527 183.94 34.729 179.808 33.1441ZM135.41 40.9844C143.526 41.2186 149.911 34.1118 150.359 29.7897C150.494 27.7765 149.808 27.0275 148.372 26.8872C144.97 26.5971 138.211 34.3315 135.41 40.9844ZM60.03 33.8302C62.7138 28.15 58.7542 24.1709 52.2921 27.3396C49.2557 28.827 46.9039 30.7744 44.66 33.2764C42.1784 36.3253 39.167 41.3299 38.428 44.7447C37.5727 48.6858 39.3333 52.976 47.1236 49.0513C47.1236 49.0513 49.0275 47.9908 50.5674 46.6681C55.4183 42.5053 58.2968 37.4992 60.03 33.8302Z" fill="#991B1B"/>
</g>
<defs>
<clipPath id="clip0_38_274">
<rect width="184" height="51.2888" fill="white" transform="translate(0 0.96875)"/>
</clipPath>
</defs>
</svg>
