<svg width="52" height="52" viewBox="0 0 52 52" fill="none" xmlns="http://www.w3.org/2000/svg">
<path d="M25.8231 15.5537L23.9847 13.7151C22.2781 12.0086 19.9635 11.0498 17.55 11.0498C15.1366 11.0498 12.8219 12.0086 11.1153 13.7151C9.40876 15.4217 8.45001 17.7364 8.45001 20.1498C8.45001 22.5633 9.40876 24.8779 11.1153 26.5845L20.2679 35.737C20.2811 35.7503 20.2943 35.7636 20.3076 35.777L24.9039 40.3732C25.1577 40.627 25.4904 40.754 25.8231 40.754" stroke="#991B1B" stroke-linecap="round" stroke-linejoin="round"/>
<path d="M25.8232 15.5535L27.6616 13.7151C29.3682 12.0086 31.6828 11.0498 34.0963 11.0498C36.5097 11.0498 38.8244 12.0086 40.531 13.7151C42.2375 15.4217 43.1963 17.7364 43.1963 20.1498C43.1963 22.5633 42.2375 24.8779 40.531 26.5845L26.7424 40.3731C26.4886 40.6269 26.1559 40.7538 25.8232 40.7538" stroke="#991B1B" stroke-linecap="round" stroke-linejoin="round"/>
</svg>
