<svg width="25" height="25" viewBox="0 0 25 25" fill="none" xmlns="http://www.w3.org/2000/svg">
<path d="M12.415 7.47766L11.5311 6.59375C10.7106 5.77328 9.59781 5.31235 8.4375 5.31235C7.27719 5.31235 6.16437 5.77328 5.34391 6.59375C4.52344 7.41422 4.0625 8.52703 4.0625 9.68735C4.0625 10.8477 4.52344 11.9605 5.34391 12.7809L9.74416 17.1812C9.7505 17.1876 9.75687 17.194 9.76328 17.2004L11.973 19.4101C12.095 19.5322 12.255 19.5932 12.415 19.5932" stroke="black" stroke-width="0.8" stroke-linecap="round" stroke-linejoin="round"/>
<path d="M12.415 7.4776L13.2989 6.59375C14.1194 5.77328 15.2322 5.31235 16.3925 5.31235C17.5528 5.31235 18.6656 5.77328 19.4861 6.59375C20.3065 7.41422 20.7675 8.52703 20.7675 9.68735C20.7675 10.8477 20.3065 11.9605 19.4861 12.7809L12.8569 19.4101C12.7349 19.5321 12.575 19.5931 12.415 19.5931" stroke="black" stroke-width="0.8" stroke-linecap="round" stroke-linejoin="round"/>
</svg>
