<svg width="25" height="25" viewBox="0 0 25 25" fill="none" xmlns="http://www.w3.org/2000/svg">
<path d="M9.50937 5.17734C11.401 4.27459 13.5992 4.27459 15.4908 5.17734C17.4013 6.08912 18.7922 7.82581 19.2673 9.88871C19.7312 11.9025 19.2764 14.0214 18.0251 15.6659L17.4041 16.4822C17.1034 16.8773 16.7696 17.2462 16.4064 17.5847L12.6544 21.0818C12.5714 21.1722 12.4287 21.1722 12.3458 21.0818L8.59378 17.5847C8.23056 17.2462 7.89678 16.8773 7.59612 16.4822L6.97506 15.6659C5.72375 14.0214 5.26903 11.9025 5.73284 9.88871C6.20793 7.82581 7.59887 6.08912 9.50937 5.17734Z" stroke="black" stroke-width="0.8" stroke-linecap="round" stroke-linejoin="round"/>
<path d="M11.1778 8.04335C12.0144 7.64563 12.9855 7.64563 13.8221 8.04335L13.8515 8.05728C14.6815 8.45188 15.286 9.20378 15.493 10.0992C15.7017 11.0017 15.4789 11.9557 14.8968 12.6763C14.3193 13.3912 13.445 13.8123 12.526 13.8123H12.4739C11.5549 13.8123 10.6806 13.3912 10.1031 12.6763C9.52101 11.9557 9.29826 11.0017 9.50692 10.0992C9.71395 9.20378 10.3184 8.45188 11.1484 8.05728L11.1778 8.04335Z" stroke="black" stroke-width="0.8" stroke-linecap="round" stroke-linejoin="round"/>
</svg>
