<svg width="160" height="45" viewBox="0 0 160 45" fill="none" xmlns="http://www.w3.org/2000/svg">
<path d="M157.087 22.243C154.02 22.176 148.021 26.994 147.313 27.735L150.448 22.378H145.729C139.663 32.654 126.99 42.661 121.362 42.863C116.272 43.233 115.902 39.595 117.587 35.283V35.316C124.8 36.057 137.472 28.645 133.495 23.153C130.091 19.75 120.924 23.322 115.093 31.104L114.689 31.711L113.813 32.991C111.757 35.754 107.51 39.729 107.51 39.729C102.05 45.086 99.59 41.953 101.882 38.079L110.88 22.479H106.836C105.724 23.995 100.264 34.002 91.4 40.269C86.378 44.109 82.469 42.459 85.974 37.472L94.77 22.479L99.657 22.446L100.297 21.772H95.276L100.601 12.472H96.152C93.792 16.482 88.266 25.815 82.738 28.173C83.716 26.859 83.378 25.107 83.378 25.107C82.974 23.086 80.716 22.884 80.716 22.884C80.716 22.884 77.514 22.412 73.874 25.646L75.829 22.412H71.347C67.437 29.352 57.057 44.109 51.394 42.694C49.878 42.02 49.777 40.1 51.361 37.506L60.326 22.345H55.876C55.27 23.255 53.45 26.725 53.484 26.657C53.652 25.747 53.888 22.243 50.451 21.536C49.675 21.367 49.136 21.334 48.395 21.334C44.586 21.3 40.745 23.288 36.969 26.624C34.307 28.982 31.779 32.115 29.656 36.024C20.522 44.413 11.153 44.884 8.086 41.751C4.85 38.415 3.57 31.576 9.569 20.053C11.692 17.055 19.579 4.05 30.937 1.051C39.43 -1.206 42.867 3.578 43.171 9.137C43.171 9.137 45.732 4.32 48.631 1.321C46.844 2.062 42.935 2.971 41.115 1.86C35.621 -1.644 25.038 -1.105 11.49 11.496C-0.138 23.288 -8.395 46.198 14.658 44.413C22.814 43.402 29.656 36.899 29.656 36.899C28.577 40.841 30.33 43.806 33.7 44.413C34.947 44.648 36.7 44.311 38.183 43.739C39.43 43.233 42.059 42.155 45.496 39.459C44.418 43.772 51.091 50.207 63.393 35.013L57.697 44.143L62.887 44.109C62.887 44.109 71.549 28.813 73.133 27.263C76.503 22.783 82.705 21.94 82.603 25.073C81.929 24.737 81.323 24.636 80.817 24.737C79.334 24.972 78.66 26.826 78.964 28.106C79.132 28.544 79.368 28.982 80.076 29.319C80.076 29.319 82.974 31.34 89.951 22.614L88.94 24.4C88.94 24.4 81.896 36.529 80.986 38.247C77.413 45.087 85.873 45.727 90.928 41.38C90.928 41.38 95.04 38.348 99.725 33.227C99.6616 33.3356 99.6051 33.4482 99.556 33.564C97.129 37.91 94.466 42.357 97.905 44.278C98.882 44.716 101.545 45.019 104.848 42.694C104.848 42.694 110.138 38.348 112.936 34.81C111.756 37.54 110.678 42.02 115.464 44.042C118.16 44.884 120.351 44.345 123.047 43.435C131.507 40.673 142.325 28.275 142.325 28.275C142.325 28.275 133.158 43.503 132.855 44.075L137.505 44.042C137.505 44.042 144.112 32.856 145.46 30.97C149.066 25.31 156.885 21.435 157.694 23.389C154.796 22.816 154.088 27.095 156.38 27.971C159.952 29.352 162.008 22.513 157.087 22.243ZM129.007 22.563C130.255 22.698 130.861 23.338 130.727 25.09C130.322 28.865 124.795 35.032 117.717 34.83C120.178 29.033 126.042 22.293 129.007 22.563ZM43.98 39.75C42.632 40.896 40.98 41.806 40.98 41.806C34.207 45.21 32.69 41.503 33.431 38.066C34.071 35.1 36.701 30.752 38.857 28.09C40.812 25.9 42.867 24.214 45.497 22.934C51.125 20.17 54.562 23.641 52.237 28.562C50.687 31.797 48.193 36.144 43.98 39.75Z" fill="black"/>
</svg>
