<svg width="25" height="25" viewBox="0 0 25 25" fill="none" xmlns="http://www.w3.org/2000/svg">
<path d="M18.75 23H6.25C5.5625 23 5 22.0937 5 20.9687V20.2812C5 17.3125 6.125 14.6562 7.8125 13.625C10.8125 11.7813 14.1563 11.7813 17.1563 13.625C18.8438 14.6562 19.9688 17.3125 19.9688 20.2812V20.9687C20 22.0937 19.4375 23 18.75 23Z" stroke="black" stroke-width="0.8" stroke-linecap="round" stroke-linejoin="round"/>
<path d="M10.5938 11.75C11.7813 12.375 13.2188 12.375 14.4063 11.75C15.5313 11.1875 16.3125 10.125 16.5938 8.90625L16.6563 8.59375C16.9375 7.34375 16.625 6.03125 15.875 5L15.75 4.84375C14.9688 3.8125 13.7813 3.21875 12.5 3.21875C11.2188 3.21875 10 3.8125 9.25002 4.84375L9.12502 5C8.34377 6.03125 8.06252 7.34375 8.34377 8.59375L8.40627 8.90625C8.68752 10.1562 9.46877 11.1875 10.5938 11.75Z" stroke="black" stroke-width="0.8" stroke-linecap="round" stroke-linejoin="round"/>
<path d="M20.9375 21.3438H3.65625V25H20.9375V21.3438Z" fill="white"/>
</svg>
